# xmcd CD database file
#
# Track frame offsets:
#	150
#	16650
#	42232
#	55512
#	66440
#	85612
#
# Disc length: 1289 seconds
#
# Revision: 0
# Processed by: cddbd v1.5.2PL0 Copyright (c) Steve Scherf et al.
# Submitted via: CDex 1.70beta2
#
DISCID=3d050706
DTITLE=Various Artist - Jazz Rally Düsseldorf
DYEAR=1994
DGENRE=Jazz
TTITLE0=Atlanta Jazzband - Cornet Chop Suey
TTITLE1=Bavarian Jazz Cats - Lous Dassen - Makin' Whoopee
TTITLE2=Ali Claudi and the Blues and Latin Band - Blue Mambo
TTITLE3=Norbert Gottschalk - Once
TTITLE4=Degen - Kracht - Weiss feat. Z. Namyslowski - Jasmin Flavored (Ausschnitt)
TTITLE5=Fischbacher Group and Modern String Quartet - Une chose comme ca
EXTD=YEAR: 1994
EXTT0=
EXTT1=
EXTT2=
EXTT3=
EXTT4=
EXTT5=
PLAYORDER=
